<?xml version="1.0" encoding="UTF-8"?>
<!DOCTYPE svg
PUBLIC "-//W3C//DTD SVG 1.1//EN"
       "http://www.w3.org/Graphics/SVG/1.1/DTD/svg11.dtd">
<svg viewBox="45 -7 1183 1020" width="1138px" height="1027px" xmlns="http://www.w3.org/2000/svg" version="1.1">
   <line x1="635" y1="241" x2="625" y2="241" style="stroke:#bbb;stroke-width:1;"/>
   <line x1="625" y1="416" x2="635" y2="416" style="stroke:#bbb;stroke-width:1;"/>
   <line x1="625" y1="241" x2="625" y2="416" style="stroke:#bbb;stroke-width:1;"/>
   <line x1="627.5" y1="241" x2="631.03553390593" y2="244.53553390593" style="stroke:#bbb;stroke-width:2;"/>
   <line x1="627.5" y1="241" x2="631.03553390593" y2="237.46446609407" style="stroke:#bbb;stroke-width:2;"/>
   <line x1="630" y1="416" x2="626.46446609407" y2="419.53553390593" style="stroke:#bbb;stroke-width:2;"/>
   <line x1="630" y1="416" x2="626.46446609407" y2="412.46446609407" style="stroke:#bbb;stroke-width:2;"/>
   <line x1="524" y1="134" x2="534" y2="134" style="stroke:#b0b;stroke-width:1;"/>
   <line x1="625" y1="141" x2="635" y2="141" style="stroke:#b0b;stroke-width:1;"/>
   <line x1="534" y1="134" x2="625" y2="141" style="stroke:#b0b;stroke-width:1;"/>
   <line x1="531.5" y1="134" x2="527.96446609407" y2="137.53553390593" style="stroke:#b0b;stroke-width:2;"/>
   <line x1="531.5" y1="134" x2="527.96446609407" y2="130.46446609407" style="stroke:#b0b;stroke-width:2;"/>
   <line x1="630" y1="141" x2="626.46446609407" y2="144.53553390593" style="stroke:#b0b;stroke-width:2;"/>
   <line x1="630" y1="141" x2="626.46446609407" y2="137.46446609407" style="stroke:#b0b;stroke-width:2;"/>
   <line x1="353" y1="154" x2="343" y2="154" style="stroke:#0b0;stroke-width:1;"/>
   <line x1="188" y1="229" x2="178" y2="229" style="stroke:#0b0;stroke-width:1;"/>
   <line x1="343" y1="154" x2="188" y2="229" style="stroke:#0b0;stroke-width:1;"/>
   <line x1="345.5" y1="154" x2="349.03553390593" y2="157.53553390593" style="stroke:#0b0;stroke-width:2;"/>
   <line x1="345.5" y1="154" x2="349.03553390593" y2="150.46446609407" style="stroke:#0b0;stroke-width:2;"/>
   <line x1="183" y1="229" x2="186.53553390593" y2="232.53553390593" style="stroke:#0b0;stroke-width:2;"/>
   <line x1="183" y1="229" x2="186.53553390593" y2="225.46446609407" style="stroke:#0b0;stroke-width:2;"/>
   <line x1="183" y1="522" x2="193" y2="522" style="stroke:#cb0;stroke-width:1;"/>
   <line x1="322" y1="460" x2="332" y2="460" style="stroke:#cb0;stroke-width:1;"/>
   <line x1="193" y1="522" x2="322" y2="460" style="stroke:#cb0;stroke-width:1;"/>
   <line x1="190.5" y1="522" x2="186.96446609407" y2="525.53553390593" style="stroke:#cb0;stroke-width:2;"/>
   <line x1="190.5" y1="522" x2="186.96446609407" y2="518.46446609407" style="stroke:#cb0;stroke-width:2;"/>
   <line x1="327" y1="460" x2="323.46446609407" y2="463.53553390593" style="stroke:#cb0;stroke-width:2;"/>
   <line x1="327" y1="460" x2="323.46446609407" y2="456.46446609407" style="stroke:#cb0;stroke-width:2;"/>
   <line x1="946" y1="211" x2="936" y2="211" style="stroke:#0b0;stroke-width:1;"/>
   <line x1="754" y1="141" x2="744" y2="141" style="stroke:#0b0;stroke-width:1;"/>
   <line x1="936" y1="211" x2="754" y2="141" style="stroke:#0b0;stroke-width:1;"/>
   <line x1="938.5" y1="211" x2="942.03553390593" y2="214.53553390593" style="stroke:#0b0;stroke-width:2;"/>
   <line x1="938.5" y1="211" x2="942.03553390593" y2="207.46446609407" style="stroke:#0b0;stroke-width:2;"/>
   <line x1="749" y1="141" x2="752.53553390593" y2="144.53553390593" style="stroke:#0b0;stroke-width:2;"/>
   <line x1="749" y1="141" x2="752.53553390593" y2="137.46446609407" style="stroke:#0b0;stroke-width:2;"/>
   <line x1="946" y1="231" x2="936" y2="231" style="stroke:#0b0;stroke-width:1;"/>
   <line x1="936" y1="391" x2="946" y2="391" style="stroke:#0b0;stroke-width:1;"/>
   <line x1="936" y1="231" x2="936" y2="391" style="stroke:#0b0;stroke-width:1;"/>
   <line x1="938.5" y1="231" x2="942.03553390593" y2="234.53553390593" style="stroke:#0b0;stroke-width:2;"/>
   <line x1="938.5" y1="231" x2="942.03553390593" y2="227.46446609407" style="stroke:#0b0;stroke-width:2;"/>
   <line x1="941" y1="391" x2="937.46446609407" y2="394.53553390593" style="stroke:#0b0;stroke-width:2;"/>
   <line x1="941" y1="391" x2="937.46446609407" y2="387.46446609407" style="stroke:#0b0;stroke-width:2;"/>
   <rect width="99" height="20" x="332" y="430" style="fill:#007;stroke:black;"/>
   <text width="99" height="20" x="337" y="444" style="fill:#fff;" font-family="Arial" font-size="16px"> albums</text>
   <rect width="99" height="20" x="332" y="450" style="fill:#aea;stroke:black;"/>
   <text width="99" height="20" x="337" y="464" style="fill:black;" font-family="Arial" font-size="16px">id</text>
   <rect width="99" height="20" x="332" y="470" style="fill:none;stroke:black;"/>
   <text width="99" height="20" x="337" y="484" style="fill:black;" font-family="Arial" font-size="16px">album_name</text>
   <rect width="99" height="20" x="332" y="490" style="fill:none;stroke:black;"/>
   <text width="99" height="20" x="337" y="504" style="fill:black;" font-family="Arial" font-size="16px">album_desc</text>
   <rect width="99" height="20" x="332" y="510" style="fill:none;stroke:black;"/>
   <text width="99" height="20" x="337" y="524" style="fill:black;" font-family="Arial" font-size="16px">created_at</text>
   <rect width="99" height="20" x="332" y="530" style="fill:none;stroke:black;"/>
   <text width="99" height="20" x="337" y="544" style="fill:black;" font-family="Arial" font-size="16px">updated_at</text>
   <rect width="109" height="20" x="635" y="111" style="fill:#007;stroke:black;"/>
   <text width="109" height="20" x="640" y="125" style="fill:#fff;" font-family="Arial" font-size="16px"> devices</text>
   <rect width="109" height="20" x="635" y="131" style="fill:#aea;stroke:black;"/>
   <text width="109" height="20" x="640" y="145" style="fill:black;" font-family="Arial" font-size="16px">id</text>
   <rect width="109" height="20" x="635" y="151" style="fill:none;stroke:black;"/>
   <text width="109" height="20" x="640" y="165" style="fill:black;" font-family="Arial" font-size="16px">device_name</text>
   <rect width="109" height="20" x="635" y="171" style="fill:none;stroke:black;"/>
   <text width="109" height="20" x="640" y="185" style="fill:black;" font-family="Arial" font-size="16px">device_desc</text>
   <rect width="109" height="20" x="635" y="191" style="fill:none;stroke:black;"/>
   <text width="109" height="20" x="640" y="205" style="fill:black;" font-family="Arial" font-size="16px">device_hwid</text>
   <rect width="109" height="20" x="635" y="211" style="fill:none;stroke:black;"/>
   <text width="109" height="20" x="640" y="225" style="fill:black;" font-family="Arial" font-size="16px">device_pass</text>
   <rect width="109" height="20" x="635" y="231" style="fill:none;stroke:black;"/>
   <text width="109" height="20" x="640" y="245" style="fill:black;" font-family="Arial" font-size="16px">device_type_id</text>
   <rect width="109" height="20" x="635" y="251" style="fill:none;stroke:black;"/>
   <text width="109" height="20" x="640" y="265" style="fill:black;" font-family="Arial" font-size="16px">created_at</text>
   <rect width="109" height="20" x="635" y="271" style="fill:none;stroke:black;"/>
   <text width="109" height="20" x="640" y="285" style="fill:black;" font-family="Arial" font-size="16px">updated_at</text>
   <rect width="154" height="20" x="60" y="805" style="fill:#007;stroke:black;"/>
   <text width="154" height="20" x="65" y="819" style="fill:#fff;" font-family="Arial" font-size="16px"> devices_devicetypes</text>
   <rect width="154" height="20" x="60" y="825" style="fill:none;stroke:black;"/>
   <text width="154" height="20" x="65" y="839" style="fill:black;" font-family="Arial" font-size="16px">id</text>
   <rect width="154" height="20" x="60" y="845" style="fill:none;stroke:black;"/>
   <text width="154" height="20" x="65" y="859" style="fill:black;" font-family="Arial" font-size="16px">device_name</text>
   <rect width="154" height="20" x="60" y="865" style="fill:none;stroke:black;"/>
   <text width="154" height="20" x="65" y="879" style="fill:black;" font-family="Arial" font-size="16px">device_desc</text>
   <rect width="154" height="20" x="60" y="885" style="fill:none;stroke:black;"/>
   <text width="154" height="20" x="65" y="899" style="fill:black;" font-family="Arial" font-size="16px">device_hwid</text>
   <rect width="154" height="20" x="60" y="905" style="fill:none;stroke:black;"/>
   <text width="154" height="20" x="65" y="919" style="fill:black;" font-family="Arial" font-size="16px">device_pass</text>
   <rect width="154" height="20" x="60" y="925" style="fill:none;stroke:black;"/>
   <text width="154" height="20" x="65" y="939" style="fill:black;" font-family="Arial" font-size="16px">device_type_id</text>
   <rect width="154" height="20" x="60" y="945" style="fill:none;stroke:black;"/>
   <text width="154" height="20" x="65" y="959" style="fill:black;" font-family="Arial" font-size="16px">device_type_name</text>
   <rect width="154" height="20" x="60" y="965" style="fill:none;stroke:black;"/>
   <text width="154" height="20" x="65" y="979" style="fill:black;" font-family="Arial" font-size="16px">device_type_desc</text>
   <rect width="154" height="20" x="60" y="985" style="fill:none;stroke:black;"/>
   <text width="154" height="20" x="65" y="999" style="fill:black;" font-family="Arial" font-size="16px">device_type_image</text>
   <rect width="238" height="20" x="306" y="673" style="fill:#007;stroke:black;"/>
   <text width="238" height="20" x="311" y="687" style="fill:#fff;" font-family="Arial" font-size="16px"> device_devicetypes_userdevices</text>
   <rect width="238" height="20" x="306" y="693" style="fill:none;stroke:black;"/>
   <text width="238" height="20" x="311" y="707" style="fill:black;" font-family="Arial" font-size="16px">id</text>
   <rect width="238" height="20" x="306" y="713" style="fill:none;stroke:black;"/>
   <text width="238" height="20" x="311" y="727" style="fill:black;" font-family="Arial" font-size="16px">user_device_name</text>
   <rect width="238" height="20" x="306" y="733" style="fill:none;stroke:black;"/>
   <text width="238" height="20" x="311" y="747" style="fill:black;" font-family="Arial" font-size="16px">user_device_pass</text>
   <rect width="238" height="20" x="306" y="753" style="fill:none;stroke:black;"/>
   <text width="238" height="20" x="311" y="767" style="fill:black;" font-family="Arial" font-size="16px">device_id</text>
   <rect width="238" height="20" x="306" y="773" style="fill:none;stroke:black;"/>
   <text width="238" height="20" x="311" y="787" style="fill:black;" font-family="Arial" font-size="16px">user_id</text>
   <rect width="238" height="20" x="306" y="793" style="fill:none;stroke:black;"/>
   <text width="238" height="20" x="311" y="807" style="fill:black;" font-family="Arial" font-size="16px">device_name</text>
   <rect width="238" height="20" x="306" y="813" style="fill:none;stroke:black;"/>
   <text width="238" height="20" x="311" y="827" style="fill:black;" font-family="Arial" font-size="16px">device_desc</text>
   <rect width="238" height="20" x="306" y="833" style="fill:none;stroke:black;"/>
   <text width="238" height="20" x="311" y="847" style="fill:black;" font-family="Arial" font-size="16px">device_hwid</text>
   <rect width="238" height="20" x="306" y="853" style="fill:none;stroke:black;"/>
   <text width="238" height="20" x="311" y="867" style="fill:black;" font-family="Arial" font-size="16px">device_pass</text>
   <rect width="238" height="20" x="306" y="873" style="fill:none;stroke:black;"/>
   <text width="238" height="20" x="311" y="887" style="fill:black;" font-family="Arial" font-size="16px">device_type_id</text>
   <rect width="238" height="20" x="306" y="893" style="fill:none;stroke:black;"/>
   <text width="238" height="20" x="311" y="907" style="fill:black;" font-family="Arial" font-size="16px">device_type_name</text>
   <rect width="238" height="20" x="306" y="913" style="fill:none;stroke:black;"/>
   <text width="238" height="20" x="311" y="927" style="fill:black;" font-family="Arial" font-size="16px">device_type_desc</text>
   <rect width="238" height="20" x="306" y="933" style="fill:none;stroke:black;"/>
   <text width="238" height="20" x="311" y="947" style="fill:black;" font-family="Arial" font-size="16px">device_type_image</text>
   <rect width="238" height="20" x="306" y="953" style="fill:none;stroke:black;"/>
   <text width="238" height="20" x="311" y="967" style="fill:black;" font-family="Arial" font-size="16px">user_name</text>
   <rect width="171" height="20" x="353" y="84" style="fill:#007;stroke:black;"/>
   <text width="171" height="20" x="358" y="98" style="fill:#fff;" font-family="Arial" font-size="16px"> device_micros</text>
   <rect width="171" height="20" x="353" y="104" style="fill:#aea;stroke:black;"/>
   <text width="171" height="20" x="358" y="118" style="fill:black;" font-family="Arial" font-size="16px">id</text>
   <rect width="171" height="20" x="353" y="124" style="fill:none;stroke:black;"/>
   <text width="171" height="20" x="358" y="138" style="fill:black;" font-family="Arial" font-size="16px">device_id</text>
   <rect width="171" height="20" x="353" y="144" style="fill:none;stroke:black;"/>
   <text width="171" height="20" x="358" y="158" style="fill:black;" font-family="Arial" font-size="16px">micro_id</text>
   <rect width="171" height="20" x="353" y="164" style="fill:none;stroke:black;"/>
   <text width="171" height="20" x="358" y="178" style="fill:black;" font-family="Arial" font-size="16px">device_micro_comment</text>
   <rect width="171" height="20" x="353" y="184" style="fill:none;stroke:black;"/>
   <text width="171" height="20" x="358" y="198" style="fill:black;" font-family="Arial" font-size="16px">created_at</text>
   <rect width="171" height="20" x="353" y="204" style="fill:none;stroke:black;"/>
   <text width="171" height="20" x="358" y="218" style="fill:black;" font-family="Arial" font-size="16px">updated_at</text>
   <rect width="140" height="20" x="635" y="386" style="fill:#007;stroke:black;"/>
   <text width="140" height="20" x="640" y="400" style="fill:#fff;" font-family="Arial" font-size="16px"> device_types</text>
   <rect width="140" height="20" x="635" y="406" style="fill:#aea;stroke:black;"/>
   <text width="140" height="20" x="640" y="420" style="fill:black;" font-family="Arial" font-size="16px">id</text>
   <rect width="140" height="20" x="635" y="426" style="fill:none;stroke:black;"/>
   <text width="140" height="20" x="640" y="440" style="fill:black;" font-family="Arial" font-size="16px">device_type_name</text>
   <rect width="140" height="20" x="635" y="446" style="fill:none;stroke:black;"/>
   <text width="140" height="20" x="640" y="460" style="fill:black;" font-family="Arial" font-size="16px">device_type_desc</text>
   <rect width="140" height="20" x="635" y="466" style="fill:none;stroke:black;"/>
   <text width="140" height="20" x="640" y="480" style="fill:black;" font-family="Arial" font-size="16px">device_type_image</text>
   <rect width="140" height="20" x="635" y="486" style="fill:none;stroke:black;"/>
   <text width="140" height="20" x="640" y="500" style="fill:black;" font-family="Arial" font-size="16px">created_at</text>
   <rect width="140" height="20" x="635" y="506" style="fill:none;stroke:black;"/>
   <text width="140" height="20" x="640" y="520" style="fill:black;" font-family="Arial" font-size="16px">updated_at</text>
   <rect width="116" height="20" x="76" y="8" style="fill:#007;stroke:black;"/>
   <text width="116" height="20" x="81" y="22" style="fill:#fff;" font-family="Arial" font-size="16px"> dev_blogs</text>
   <rect width="116" height="20" x="76" y="28" style="fill:#aea;stroke:black;"/>
   <text width="116" height="20" x="81" y="42" style="fill:black;" font-family="Arial" font-size="16px">id</text>
   <rect width="116" height="20" x="76" y="48" style="fill:none;stroke:black;"/>
   <text width="116" height="20" x="81" y="62" style="fill:black;" font-family="Arial" font-size="16px">dev_blog_name</text>
   <rect width="116" height="20" x="76" y="68" style="fill:none;stroke:black;"/>
   <text width="116" height="20" x="81" y="82" style="fill:black;" font-family="Arial" font-size="16px">dev_blog_desc</text>
   <rect width="116" height="20" x="76" y="88" style="fill:none;stroke:black;"/>
   <text width="116" height="20" x="81" y="102" style="fill:black;" font-family="Arial" font-size="16px">created_at</text>
   <rect width="116" height="20" x="76" y="108" style="fill:none;stroke:black;"/>
   <text width="116" height="20" x="81" y="122" style="fill:black;" font-family="Arial" font-size="16px">updated_at</text>
   <rect width="87" height="20" x="1081" y="681" style="fill:#007;stroke:black;"/>
   <text width="87" height="20" x="1086" y="695" style="fill:#fff;" font-family="Arial" font-size="16px"> failed_jobs</text>
   <rect width="87" height="20" x="1081" y="701" style="fill:#aea;stroke:black;"/>
   <text width="87" height="20" x="1086" y="715" style="fill:black;" font-family="Arial" font-size="16px">id</text>
   <rect width="87" height="20" x="1081" y="721" style="fill:none;stroke:black;"/>
   <text width="87" height="20" x="1086" y="735" style="fill:black;" font-family="Arial" font-size="16px">uuid</text>
   <rect width="87" height="20" x="1081" y="741" style="fill:none;stroke:black;"/>
   <text width="87" height="20" x="1086" y="755" style="fill:black;" font-family="Arial" font-size="16px">connection</text>
   <rect width="87" height="20" x="1081" y="761" style="fill:none;stroke:black;"/>
   <text width="87" height="20" x="1086" y="775" style="fill:black;" font-family="Arial" font-size="16px">queue</text>
   <rect width="87" height="20" x="1081" y="781" style="fill:none;stroke:black;"/>
   <text width="87" height="20" x="1086" y="795" style="fill:black;" font-family="Arial" font-size="16px">payload</text>
   <rect width="87" height="20" x="1081" y="801" style="fill:none;stroke:black;"/>
   <text width="87" height="20" x="1086" y="815" style="fill:black;" font-family="Arial" font-size="16px">exception</text>
   <rect width="87" height="20" x="1081" y="821" style="fill:none;stroke:black;"/>
   <text width="87" height="20" x="1086" y="835" style="fill:black;" font-family="Arial" font-size="16px">failed_at</text>
   <rect width="99" height="20" x="84" y="432" style="fill:#007;stroke:black;"/>
   <text width="99" height="20" x="89" y="446" style="fill:#fff;" font-family="Arial" font-size="16px"> images</text>
   <rect width="99" height="20" x="84" y="452" style="fill:#aea;stroke:black;"/>
   <text width="99" height="20" x="89" y="466" style="fill:black;" font-family="Arial" font-size="16px">id</text>
   <rect width="99" height="20" x="84" y="472" style="fill:none;stroke:black;"/>
   <text width="99" height="20" x="89" y="486" style="fill:black;" font-family="Arial" font-size="16px">image_name</text>
   <rect width="99" height="20" x="84" y="492" style="fill:none;stroke:black;"/>
   <text width="99" height="20" x="89" y="506" style="fill:black;" font-family="Arial" font-size="16px">image_desc</text>
   <rect width="99" height="20" x="84" y="512" style="fill:none;stroke:black;"/>
   <text width="99" height="20" x="89" y="526" style="fill:black;" font-family="Arial" font-size="16px">album_id</text>
   <rect width="99" height="20" x="84" y="532" style="fill:none;stroke:black;"/>
   <text width="99" height="20" x="89" y="546" style="fill:black;" font-family="Arial" font-size="16px">created_at</text>
   <rect width="99" height="20" x="84" y="552" style="fill:none;stroke:black;"/>
   <text width="99" height="20" x="89" y="566" style="fill:black;" font-family="Arial" font-size="16px">updated_at</text>
   <rect width="97" height="20" x="81" y="199" style="fill:#007;stroke:black;"/>
   <text width="97" height="20" x="86" y="213" style="fill:#fff;" font-family="Arial" font-size="16px"> micros</text>
   <rect width="97" height="20" x="81" y="219" style="fill:#aea;stroke:black;"/>
   <text width="97" height="20" x="86" y="233" style="fill:black;" font-family="Arial" font-size="16px">id</text>
   <rect width="97" height="20" x="81" y="239" style="fill:none;stroke:black;"/>
   <text width="97" height="20" x="86" y="253" style="fill:black;" font-family="Arial" font-size="16px">micro_name</text>
   <rect width="97" height="20" x="81" y="259" style="fill:none;stroke:black;"/>
   <text width="97" height="20" x="86" y="273" style="fill:black;" font-family="Arial" font-size="16px">micro_desc</text>
   <rect width="97" height="20" x="81" y="279" style="fill:none;stroke:black;"/>
   <text width="97" height="20" x="86" y="293" style="fill:black;" font-family="Arial" font-size="16px">micro_config</text>
   <rect width="97" height="20" x="81" y="299" style="fill:none;stroke:black;"/>
   <text width="97" height="20" x="86" y="313" style="fill:black;" font-family="Arial" font-size="16px">created_at</text>
   <rect width="97" height="20" x="81" y="319" style="fill:none;stroke:black;"/>
   <text width="97" height="20" x="86" y="333" style="fill:black;" font-family="Arial" font-size="16px">updated_at</text>
   <rect width="83" height="20" x="876" y="679" style="fill:#007;stroke:black;"/>
   <text width="83" height="20" x="881" y="693" style="fill:#fff;" font-family="Arial" font-size="16px"> migrations</text>
   <rect width="83" height="20" x="876" y="699" style="fill:#aea;stroke:black;"/>
   <text width="83" height="20" x="881" y="713" style="fill:black;" font-family="Arial" font-size="16px">id</text>
   <rect width="83" height="20" x="876" y="719" style="fill:none;stroke:black;"/>
   <text width="83" height="20" x="881" y="733" style="fill:black;" font-family="Arial" font-size="16px">migration</text>
   <rect width="83" height="20" x="876" y="739" style="fill:none;stroke:black;"/>
   <text width="83" height="20" x="881" y="753" style="fill:black;" font-family="Arial" font-size="16px">batch</text>
   <rect width="123" height="20" x="877" y="841" style="fill:#007;stroke:black;"/>
   <text width="123" height="20" x="882" y="855" style="fill:#fff;" font-family="Arial" font-size="16px"> password_resets</text>
   <rect width="123" height="20" x="877" y="861" style="fill:none;stroke:black;"/>
   <text width="123" height="20" x="882" y="875" style="fill:black;" font-family="Arial" font-size="16px">email</text>
   <rect width="123" height="20" x="877" y="881" style="fill:none;stroke:black;"/>
   <text width="123" height="20" x="882" y="895" style="fill:black;" font-family="Arial" font-size="16px">token</text>
   <rect width="123" height="20" x="877" y="901" style="fill:none;stroke:black;"/>
   <text width="123" height="20" x="882" y="915" style="fill:black;" font-family="Arial" font-size="16px">created_at</text>
   <rect width="178" height="20" x="617" y="677" style="fill:#007;stroke:black;"/>
   <text width="178" height="20" x="622" y="691" style="fill:#fff;" font-family="Arial" font-size="16px"> personal_access_tokens</text>
   <rect width="178" height="20" x="617" y="697" style="fill:#aea;stroke:black;"/>
   <text width="178" height="20" x="622" y="711" style="fill:black;" font-family="Arial" font-size="16px">id</text>
   <rect width="178" height="20" x="617" y="717" style="fill:none;stroke:black;"/>
   <text width="178" height="20" x="622" y="731" style="fill:black;" font-family="Arial" font-size="16px">tokenable_type</text>
   <rect width="178" height="20" x="617" y="737" style="fill:none;stroke:black;"/>
   <text width="178" height="20" x="622" y="751" style="fill:black;" font-family="Arial" font-size="16px">tokenable_id</text>
   <rect width="178" height="20" x="617" y="757" style="fill:none;stroke:black;"/>
   <text width="178" height="20" x="622" y="771" style="fill:black;" font-family="Arial" font-size="16px">name</text>
   <rect width="178" height="20" x="617" y="777" style="fill:none;stroke:black;"/>
   <text width="178" height="20" x="622" y="791" style="fill:black;" font-family="Arial" font-size="16px">token</text>
   <rect width="178" height="20" x="617" y="797" style="fill:none;stroke:black;"/>
   <text width="178" height="20" x="622" y="811" style="fill:black;" font-family="Arial" font-size="16px">abilities</text>
   <rect width="178" height="20" x="617" y="817" style="fill:none;stroke:black;"/>
   <text width="178" height="20" x="622" y="831" style="fill:black;" font-family="Arial" font-size="16px">last_used_at</text>
   <rect width="178" height="20" x="617" y="837" style="fill:none;stroke:black;"/>
   <text width="178" height="20" x="622" y="851" style="fill:black;" font-family="Arial" font-size="16px">created_at</text>
   <rect width="178" height="20" x="617" y="857" style="fill:none;stroke:black;"/>
   <text width="178" height="20" x="622" y="871" style="fill:black;" font-family="Arial" font-size="16px">updated_at</text>
   <rect width="127" height="20" x="946" y="361" style="fill:#007;stroke:black;"/>
   <text width="127" height="20" x="951" y="375" style="fill:#fff;" font-family="Arial" font-size="16px"> users</text>
   <rect width="127" height="20" x="946" y="381" style="fill:#aea;stroke:black;"/>
   <text width="127" height="20" x="951" y="395" style="fill:black;" font-family="Arial" font-size="16px">id</text>
   <rect width="127" height="20" x="946" y="401" style="fill:none;stroke:black;"/>
   <text width="127" height="20" x="951" y="415" style="fill:black;" font-family="Arial" font-size="16px">name</text>
   <rect width="127" height="20" x="946" y="421" style="fill:none;stroke:black;"/>
   <text width="127" height="20" x="951" y="435" style="fill:black;" font-family="Arial" font-size="16px">email</text>
   <rect width="127" height="20" x="946" y="441" style="fill:none;stroke:black;"/>
   <text width="127" height="20" x="951" y="455" style="fill:black;" font-family="Arial" font-size="16px">email_verified_at</text>
   <rect width="127" height="20" x="946" y="461" style="fill:none;stroke:black;"/>
   <text width="127" height="20" x="951" y="475" style="fill:black;" font-family="Arial" font-size="16px">password</text>
   <rect width="127" height="20" x="946" y="481" style="fill:none;stroke:black;"/>
   <text width="127" height="20" x="951" y="495" style="fill:black;" font-family="Arial" font-size="16px">remember_token</text>
   <rect width="127" height="20" x="946" y="501" style="fill:none;stroke:black;"/>
   <text width="127" height="20" x="951" y="515" style="fill:black;" font-family="Arial" font-size="16px">created_at</text>
   <rect width="127" height="20" x="946" y="521" style="fill:none;stroke:black;"/>
   <text width="127" height="20" x="951" y="535" style="fill:black;" font-family="Arial" font-size="16px">updated_at</text>
   <rect width="142" height="20" x="80" y="672" style="fill:#007;stroke:black;"/>
   <text width="142" height="20" x="85" y="686" style="fill:#fff;" font-family="Arial" font-size="16px"> users_with_devices</text>
   <rect width="142" height="20" x="80" y="692" style="fill:none;stroke:black;"/>
   <text width="142" height="20" x="85" y="706" style="fill:black;" font-family="Arial" font-size="16px">id</text>
   <rect width="142" height="20" x="80" y="712" style="fill:none;stroke:black;"/>
   <text width="142" height="20" x="85" y="726" style="fill:black;" font-family="Arial" font-size="16px">user_name</text>
   <rect width="142" height="20" x="80" y="732" style="fill:none;stroke:black;"/>
   <text width="142" height="20" x="85" y="746" style="fill:black;" font-family="Arial" font-size="16px">device_count</text>
   <rect width="137" height="20" x="946" y="121" style="fill:#007;stroke:black;"/>
   <text width="137" height="20" x="951" y="135" style="fill:#fff;" font-family="Arial" font-size="16px"> user_devices</text>
   <rect width="137" height="20" x="946" y="141" style="fill:#aea;stroke:black;"/>
   <text width="137" height="20" x="951" y="155" style="fill:black;" font-family="Arial" font-size="16px">id</text>
   <rect width="137" height="20" x="946" y="161" style="fill:none;stroke:black;"/>
   <text width="137" height="20" x="951" y="175" style="fill:black;" font-family="Arial" font-size="16px">user_device_name</text>
   <rect width="137" height="20" x="946" y="181" style="fill:none;stroke:black;"/>
   <text width="137" height="20" x="951" y="195" style="fill:black;" font-family="Arial" font-size="16px">user_device_pass</text>
   <rect width="137" height="20" x="946" y="201" style="fill:none;stroke:black;"/>
   <text width="137" height="20" x="951" y="215" style="fill:black;" font-family="Arial" font-size="16px">device_id</text>
   <rect width="137" height="20" x="946" y="221" style="fill:none;stroke:black;"/>
   <text width="137" height="20" x="951" y="235" style="fill:black;" font-family="Arial" font-size="16px">user_id</text>
   <rect width="137" height="20" x="946" y="241" style="fill:none;stroke:black;"/>
   <text width="137" height="20" x="951" y="255" style="fill:black;" font-family="Arial" font-size="16px">created_at</text>
   <rect width="137" height="20" x="946" y="261" style="fill:none;stroke:black;"/>
   <text width="137" height="20" x="951" y="275" style="fill:black;" font-family="Arial" font-size="16px">updated_at</text>
</svg>
