<?xml version="1.0" standalone="no"?>
<!DOCTYPE svg PUBLIC "-//W3C//DTD SVG 20010904//EN"
 "http://www.w3.org/TR/2001/REC-SVG-20010904/DTD/svg10.dtd">
<svg version="1.0" xmlns="http://www.w3.org/2000/svg"
 width="310.000000pt" height="310.000000pt" viewBox="0 0 310.000000 310.000000"
 preserveAspectRatio="xMidYMid meet">

<g transform="translate(0.000000,310.000000) scale(0.100000,-0.100000)"
fill="#000000" stroke="none">
<path d="M1390 3091 c-8 -5 -37 -12 -65 -16 -614 -74 -1175 -603 -1284 -1210
-7 -38 -18 -90 -24 -115 -14 -58 -14 -342 0 -400 6 -25 17 -76 24 -115 48
-272 205 -561 419 -775 237 -237 557 -398 867 -435 29 -4 55 -11 59 -16 3 -5
77 -9 164 -9 87 0 161 4 164 9 4 5 30 12 59 16 617 75 1177 602 1286 1210 7
39 18 90 24 115 15 61 14 342 -2 410 -6 30 -17 80 -23 110 -112 579 -608 1074
-1188 1188 -30 6 -80 17 -110 23 -69 15 -350 23 -370 10z m390 -141 c449 -82
816 -347 1024 -741 111 -211 161 -415 161 -659 0 -185 -15 -278 -76 -463 -131
-398 -470 -736 -875 -874 -182 -62 -271 -77 -464 -77 -244 0 -409 39 -635 149
-400 196 -681 578 -766 1040 -26 141 -15 414 23 560 123 474 474 859 915 1004
133 44 176 53 338 75 54 8 288 -2 355 -14z"/>
<path d="M817 2363 c-4 -3 -7 -329 -7 -723 l0 -716 99 -97 98 -97 91 0 c50 0
97 3 106 6 14 6 16 87 16 814 0 727 -2 808 -16 814 -21 8 -379 8 -387 -1z
m168 -179 c22 -9 59 -14 87 -13 37 2 52 -1 59 -13 4 -8 13 -68 20 -132 15
-153 6 -1010 -11 -1078 l-12 -48 -88 0 c-71 0 -89 3 -94 16 -6 17 -9 1284 -2
1284 2 0 20 -7 41 -16z"/>
<path d="M1893 2362 c-10 -6 -13 -143 -15 -608 l-3 -599 -227 -3 c-226 -2
-228 -3 -233 -25 -3 -12 -4 -105 -3 -207 l3 -185 339 -3 339 -2 98 97 99 97
-2 720 -3 721 -190 2 c-104 2 -196 -1 -202 -5z m242 -822 l0 -635 -307 -3
-307 -2 -14 22 c-20 31 -30 128 -16 145 9 10 60 13 224 13 161 0 215 3 223 13
7 9 12 180 14 527 2 367 6 521 15 535 10 17 22 20 90 20 l78 0 0 -635z"/>
</g>
</svg>
