<?xml version="1.0" encoding="UTF-8"?>
<!DOCTYPE svg
PUBLIC "-//W3C//DTD SVG 1.1//EN"
       "http://www.w3.org/Graphics/SVG/1.1/DTD/svg11.dtd">
<svg viewBox="54 9 1206 1718" width="1152px" height="1709px" xmlns="http://www.w3.org/2000/svg" version="1.1">
   <line x1="687" y1="394" x2="677" y2="394" style="stroke:#0b0;stroke-width:1;"/>
   <line x1="691" y1="567" x2="701" y2="567" style="stroke:#0b0;stroke-width:1;"/>
   <line x1="677" y1="394" x2="691" y2="567" style="stroke:#0b0;stroke-width:1;"/>
   <line x1="679.5" y1="394" x2="683.03553390593" y2="397.53553390593" style="stroke:#0b0;stroke-width:2;"/>
   <line x1="679.5" y1="394" x2="683.03553390593" y2="390.46446609407" style="stroke:#0b0;stroke-width:2;"/>
   <line x1="696" y1="567" x2="692.46446609407" y2="570.53553390593" style="stroke:#0b0;stroke-width:2;"/>
   <line x1="696" y1="567" x2="692.46446609407" y2="563.46446609407" style="stroke:#0b0;stroke-width:2;"/>
   <line x1="558" y1="288" x2="568" y2="288" style="stroke:#b0b;stroke-width:1;"/>
   <line x1="677" y1="294" x2="687" y2="294" style="stroke:#b0b;stroke-width:1;"/>
   <line x1="568" y1="288" x2="677" y2="294" style="stroke:#b0b;stroke-width:1;"/>
   <line x1="565.5" y1="288" x2="561.96446609407" y2="291.53553390593" style="stroke:#b0b;stroke-width:2;"/>
   <line x1="565.5" y1="288" x2="561.96446609407" y2="284.46446609407" style="stroke:#b0b;stroke-width:2;"/>
   <line x1="682" y1="294" x2="678.46446609407" y2="297.53553390593" style="stroke:#b0b;stroke-width:2;"/>
   <line x1="682" y1="294" x2="678.46446609407" y2="290.46446609407" style="stroke:#b0b;stroke-width:2;"/>
   <line x1="419" y1="308" x2="409" y2="308" style="stroke:#0b0;stroke-width:1;"/>
   <line x1="410" y1="515" x2="420" y2="515" style="stroke:#0b0;stroke-width:1;"/>
   <line x1="409" y1="308" x2="410" y2="515" style="stroke:#0b0;stroke-width:1;"/>
   <line x1="411.5" y1="308" x2="415.03553390593" y2="311.53553390593" style="stroke:#0b0;stroke-width:2;"/>
   <line x1="411.5" y1="308" x2="415.03553390593" y2="304.46446609407" style="stroke:#0b0;stroke-width:2;"/>
   <line x1="415" y1="515" x2="411.46446609407" y2="518.53553390593" style="stroke:#0b0;stroke-width:2;"/>
   <line x1="415" y1="515" x2="411.46446609407" y2="511.46446609407" style="stroke:#0b0;stroke-width:2;"/>
   <line x1="103" y1="894" x2="93" y2="894" style="stroke:#0b0;stroke-width:1;"/>
   <line x1="92" y1="660" x2="102" y2="660" style="stroke:#0b0;stroke-width:1;"/>
   <line x1="93" y1="894" x2="92" y2="660" style="stroke:#0b0;stroke-width:1;"/>
   <line x1="95.5" y1="894" x2="99.035533905933" y2="897.53553390593" style="stroke:#0b0;stroke-width:2;"/>
   <line x1="95.5" y1="894" x2="99.035533905933" y2="890.46446609407" style="stroke:#0b0;stroke-width:2;"/>
   <line x1="97" y1="660" x2="93.464466094067" y2="663.53553390593" style="stroke:#0b0;stroke-width:2;"/>
   <line x1="97" y1="660" x2="93.464466094067" y2="656.46446609407" style="stroke:#0b0;stroke-width:2;"/>
   <line x1="103" y1="234" x2="93" y2="234" style="stroke:#0b0;stroke-width:1;"/>
   <line x1="92" y1="460" x2="102" y2="460" style="stroke:#0b0;stroke-width:1;"/>
   <line x1="93" y1="234" x2="92" y2="460" style="stroke:#0b0;stroke-width:1;"/>
   <line x1="95.5" y1="234" x2="99.035533905933" y2="237.53553390593" style="stroke:#0b0;stroke-width:2;"/>
   <line x1="95.5" y1="234" x2="99.035533905933" y2="230.46446609407" style="stroke:#0b0;stroke-width:2;"/>
   <line x1="97" y1="460" x2="93.464466094067" y2="463.53553390593" style="stroke:#0b0;stroke-width:2;"/>
   <line x1="97" y1="460" x2="93.464466094067" y2="456.46446609407" style="stroke:#0b0;stroke-width:2;"/>
   <line x1="221" y1="214" x2="231" y2="214" style="stroke:#c00;stroke-width:1;"/>
   <line x1="409" y1="268" x2="419" y2="268" style="stroke:#c00;stroke-width:1;"/>
   <line x1="231" y1="214" x2="409" y2="268" style="stroke:#c00;stroke-width:1;"/>
   <line x1="228.5" y1="214" x2="224.96446609407" y2="217.53553390593" style="stroke:#c00;stroke-width:2;"/>
   <line x1="228.5" y1="214" x2="224.96446609407" y2="210.46446609407" style="stroke:#c00;stroke-width:2;"/>
   <line x1="414" y1="268" x2="410.46446609407" y2="271.53553390593" style="stroke:#c00;stroke-width:2;"/>
   <line x1="414" y1="268" x2="410.46446609407" y2="264.46446609407" style="stroke:#c00;stroke-width:2;"/>
   <line x1="982" y1="269" x2="972" y2="269" style="stroke:#bbb;stroke-width:1;"/>
   <line x1="806" y1="294" x2="796" y2="294" style="stroke:#bbb;stroke-width:1;"/>
   <line x1="972" y1="269" x2="806" y2="294" style="stroke:#bbb;stroke-width:1;"/>
   <line x1="974.5" y1="269" x2="978.03553390593" y2="272.53553390593" style="stroke:#bbb;stroke-width:2;"/>
   <line x1="974.5" y1="269" x2="978.03553390593" y2="265.46446609407" style="stroke:#bbb;stroke-width:2;"/>
   <line x1="801" y1="294" x2="804.53553390593" y2="297.53553390593" style="stroke:#bbb;stroke-width:2;"/>
   <line x1="801" y1="294" x2="804.53553390593" y2="290.46446609407" style="stroke:#bbb;stroke-width:2;"/>
   <line x1="982" y1="289" x2="972" y2="289" style="stroke:#c00;stroke-width:1;"/>
   <line x1="972" y1="482" x2="982" y2="482" style="stroke:#c00;stroke-width:1;"/>
   <line x1="972" y1="289" x2="972" y2="482" style="stroke:#c00;stroke-width:1;"/>
   <line x1="974.5" y1="289" x2="978.03553390593" y2="292.53553390593" style="stroke:#c00;stroke-width:2;"/>
   <line x1="974.5" y1="289" x2="978.03553390593" y2="285.46446609407" style="stroke:#c00;stroke-width:2;"/>
   <line x1="977" y1="482" x2="973.46446609407" y2="485.53553390593" style="stroke:#c00;stroke-width:2;"/>
   <line x1="977" y1="482" x2="973.46446609407" y2="478.46446609407" style="stroke:#c00;stroke-width:2;"/>
   <rect width="99" height="20" x="102" y="630" style="fill:#007;stroke:black;"/>
   <text width="99" height="20" x="107" y="644" style="fill:#fff;" font-family="Arial" font-size="16px"> albums</text>
   <rect width="99" height="20" x="102" y="650" style="fill:#aea;stroke:black;"/>
   <text width="99" height="20" x="107" y="664" style="fill:black;" font-family="Arial" font-size="16px">id</text>
   <rect width="99" height="20" x="102" y="670" style="fill:none;stroke:black;"/>
   <text width="99" height="20" x="107" y="684" style="fill:black;" font-family="Arial" font-size="16px">album_name</text>
   <rect width="99" height="20" x="102" y="690" style="fill:none;stroke:black;"/>
   <text width="99" height="20" x="107" y="704" style="fill:black;" font-family="Arial" font-size="16px">album_desc</text>
   <rect width="99" height="20" x="102" y="710" style="fill:none;stroke:black;"/>
   <text width="99" height="20" x="107" y="724" style="fill:black;" font-family="Arial" font-size="16px">created_at</text>
   <rect width="99" height="20" x="102" y="730" style="fill:none;stroke:black;"/>
   <text width="99" height="20" x="107" y="744" style="fill:black;" font-family="Arial" font-size="16px">updated_at</text>
   <rect width="109" height="20" x="687" y="264" style="fill:#007;stroke:black;"/>
   <text width="109" height="20" x="692" y="278" style="fill:#fff;" font-family="Arial" font-size="16px"> devices</text>
   <rect width="109" height="20" x="687" y="284" style="fill:#aea;stroke:black;"/>
   <text width="109" height="20" x="692" y="298" style="fill:black;" font-family="Arial" font-size="16px">id</text>
   <rect width="109" height="20" x="687" y="304" style="fill:none;stroke:black;"/>
   <text width="109" height="20" x="692" y="318" style="fill:black;" font-family="Arial" font-size="16px">device_name</text>
   <rect width="109" height="20" x="687" y="324" style="fill:none;stroke:black;"/>
   <text width="109" height="20" x="692" y="338" style="fill:black;" font-family="Arial" font-size="16px">device_desc</text>
   <rect width="109" height="20" x="687" y="344" style="fill:none;stroke:black;"/>
   <text width="109" height="20" x="692" y="358" style="fill:black;" font-family="Arial" font-size="16px">device_hwid</text>
   <rect width="109" height="20" x="687" y="364" style="fill:none;stroke:black;"/>
   <text width="109" height="20" x="692" y="378" style="fill:black;" font-family="Arial" font-size="16px">device_pass</text>
   <rect width="109" height="20" x="687" y="384" style="fill:none;stroke:black;"/>
   <text width="109" height="20" x="692" y="398" style="fill:black;" font-family="Arial" font-size="16px">device_type_id</text>
   <rect width="109" height="20" x="687" y="404" style="fill:none;stroke:black;"/>
   <text width="109" height="20" x="692" y="418" style="fill:black;" font-family="Arial" font-size="16px">created_at</text>
   <rect width="109" height="20" x="687" y="424" style="fill:none;stroke:black;"/>
   <text width="109" height="20" x="692" y="438" style="fill:black;" font-family="Arial" font-size="16px">updated_at</text>
   <rect width="154" height="20" x="494" y="1483" style="fill:#007;stroke:black;"/>
   <text width="154" height="20" x="499" y="1497" style="fill:#fff;" font-family="Arial" font-size="16px"> devices_devicetypes</text>
   <rect width="154" height="20" x="494" y="1503" style="fill:none;stroke:black;"/>
   <text width="154" height="20" x="499" y="1517" style="fill:black;" font-family="Arial" font-size="16px">id</text>
   <rect width="154" height="20" x="494" y="1523" style="fill:none;stroke:black;"/>
   <text width="154" height="20" x="499" y="1537" style="fill:black;" font-family="Arial" font-size="16px">device_name</text>
   <rect width="154" height="20" x="494" y="1543" style="fill:none;stroke:black;"/>
   <text width="154" height="20" x="499" y="1557" style="fill:black;" font-family="Arial" font-size="16px">device_desc</text>
   <rect width="154" height="20" x="494" y="1563" style="fill:none;stroke:black;"/>
   <text width="154" height="20" x="499" y="1577" style="fill:black;" font-family="Arial" font-size="16px">device_hwid</text>
   <rect width="154" height="20" x="494" y="1583" style="fill:none;stroke:black;"/>
   <text width="154" height="20" x="499" y="1597" style="fill:black;" font-family="Arial" font-size="16px">device_pass</text>
   <rect width="154" height="20" x="494" y="1603" style="fill:none;stroke:black;"/>
   <text width="154" height="20" x="499" y="1617" style="fill:black;" font-family="Arial" font-size="16px">device_type_id</text>
   <rect width="154" height="20" x="494" y="1623" style="fill:none;stroke:black;"/>
   <text width="154" height="20" x="499" y="1637" style="fill:black;" font-family="Arial" font-size="16px">created_at</text>
   <rect width="154" height="20" x="494" y="1643" style="fill:none;stroke:black;"/>
   <text width="154" height="20" x="499" y="1657" style="fill:black;" font-family="Arial" font-size="16px">device_type_name</text>
   <rect width="154" height="20" x="494" y="1663" style="fill:none;stroke:black;"/>
   <text width="154" height="20" x="499" y="1677" style="fill:black;" font-family="Arial" font-size="16px">device_type_desc</text>
   <rect width="154" height="20" x="494" y="1683" style="fill:none;stroke:black;"/>
   <text width="154" height="20" x="499" y="1697" style="fill:black;" font-family="Arial" font-size="16px">device_type_image</text>
   <rect width="238" height="20" x="754" y="1177" style="fill:#007;stroke:black;"/>
   <text width="238" height="20" x="759" y="1191" style="fill:#fff;" font-family="Arial" font-size="16px"> device_devicetypes_userdevices</text>
   <rect width="238" height="20" x="754" y="1197" style="fill:none;stroke:black;"/>
   <text width="238" height="20" x="759" y="1211" style="fill:black;" font-family="Arial" font-size="16px">id</text>
   <rect width="238" height="20" x="754" y="1217" style="fill:none;stroke:black;"/>
   <text width="238" height="20" x="759" y="1231" style="fill:black;" font-family="Arial" font-size="16px">user_device_name</text>
   <rect width="238" height="20" x="754" y="1237" style="fill:none;stroke:black;"/>
   <text width="238" height="20" x="759" y="1251" style="fill:black;" font-family="Arial" font-size="16px">user_device_pass</text>
   <rect width="238" height="20" x="754" y="1257" style="fill:none;stroke:black;"/>
   <text width="238" height="20" x="759" y="1271" style="fill:black;" font-family="Arial" font-size="16px">device_id</text>
   <rect width="238" height="20" x="754" y="1277" style="fill:none;stroke:black;"/>
   <text width="238" height="20" x="759" y="1291" style="fill:black;" font-family="Arial" font-size="16px">user_id</text>
   <rect width="238" height="20" x="754" y="1297" style="fill:none;stroke:black;"/>
   <text width="238" height="20" x="759" y="1311" style="fill:black;" font-family="Arial" font-size="16px">device_name</text>
   <rect width="238" height="20" x="754" y="1317" style="fill:none;stroke:black;"/>
   <text width="238" height="20" x="759" y="1331" style="fill:black;" font-family="Arial" font-size="16px">device_desc</text>
   <rect width="238" height="20" x="754" y="1337" style="fill:none;stroke:black;"/>
   <text width="238" height="20" x="759" y="1351" style="fill:black;" font-family="Arial" font-size="16px">device_hwid</text>
   <rect width="238" height="20" x="754" y="1357" style="fill:none;stroke:black;"/>
   <text width="238" height="20" x="759" y="1371" style="fill:black;" font-family="Arial" font-size="16px">device_pass</text>
   <rect width="238" height="20" x="754" y="1377" style="fill:none;stroke:black;"/>
   <text width="238" height="20" x="759" y="1391" style="fill:black;" font-family="Arial" font-size="16px">device_type_id</text>
   <rect width="238" height="20" x="754" y="1397" style="fill:none;stroke:black;"/>
   <text width="238" height="20" x="759" y="1411" style="fill:black;" font-family="Arial" font-size="16px">device_type_name</text>
   <rect width="238" height="20" x="754" y="1417" style="fill:none;stroke:black;"/>
   <text width="238" height="20" x="759" y="1431" style="fill:black;" font-family="Arial" font-size="16px">device_type_desc</text>
   <rect width="238" height="20" x="754" y="1437" style="fill:none;stroke:black;"/>
   <text width="238" height="20" x="759" y="1451" style="fill:black;" font-family="Arial" font-size="16px">device_type_image</text>
   <rect width="238" height="20" x="754" y="1457" style="fill:none;stroke:black;"/>
   <text width="238" height="20" x="759" y="1471" style="fill:black;" font-family="Arial" font-size="16px">user_name</text>
   <rect width="139" height="20" x="419" y="238" style="fill:#007;stroke:black;"/>
   <text width="139" height="20" x="424" y="252" style="fill:#fff;" font-family="Arial" font-size="16px"> device_micros</text>
   <rect width="139" height="20" x="419" y="258" style="fill:#aea;stroke:black;"/>
   <text width="139" height="20" x="424" y="272" style="fill:black;" font-family="Arial" font-size="16px">id</text>
   <rect width="139" height="20" x="419" y="278" style="fill:none;stroke:black;"/>
   <text width="139" height="20" x="424" y="292" style="fill:black;" font-family="Arial" font-size="16px">device_id</text>
   <rect width="139" height="20" x="419" y="298" style="fill:none;stroke:black;"/>
   <text width="139" height="20" x="424" y="312" style="fill:black;" font-family="Arial" font-size="16px">micro_id</text>
   <rect width="139" height="20" x="419" y="318" style="fill:none;stroke:black;"/>
   <text width="139" height="20" x="424" y="332" style="fill:black;" font-family="Arial" font-size="16px">device_micro_idx</text>
   <rect width="139" height="20" x="419" y="338" style="fill:none;stroke:black;"/>
   <text width="139" height="20" x="424" y="352" style="fill:black;" font-family="Arial" font-size="16px">device_micro_desc</text>
   <rect width="139" height="20" x="419" y="358" style="fill:none;stroke:black;"/>
   <text width="139" height="20" x="424" y="372" style="fill:black;" font-family="Arial" font-size="16px">created_at</text>
   <rect width="139" height="20" x="419" y="378" style="fill:none;stroke:black;"/>
   <text width="139" height="20" x="424" y="392" style="fill:black;" font-family="Arial" font-size="16px">updated_at</text>
   <rect width="140" height="20" x="701" y="537" style="fill:#007;stroke:black;"/>
   <text width="140" height="20" x="706" y="551" style="fill:#fff;" font-family="Arial" font-size="16px"> device_types</text>
   <rect width="140" height="20" x="701" y="557" style="fill:#aea;stroke:black;"/>
   <text width="140" height="20" x="706" y="571" style="fill:black;" font-family="Arial" font-size="16px">id</text>
   <rect width="140" height="20" x="701" y="577" style="fill:none;stroke:black;"/>
   <text width="140" height="20" x="706" y="591" style="fill:black;" font-family="Arial" font-size="16px">device_type_name</text>
   <rect width="140" height="20" x="701" y="597" style="fill:none;stroke:black;"/>
   <text width="140" height="20" x="706" y="611" style="fill:black;" font-family="Arial" font-size="16px">device_type_desc</text>
   <rect width="140" height="20" x="701" y="617" style="fill:none;stroke:black;"/>
   <text width="140" height="20" x="706" y="631" style="fill:black;" font-family="Arial" font-size="16px">device_type_image</text>
   <rect width="140" height="20" x="701" y="637" style="fill:none;stroke:black;"/>
   <text width="140" height="20" x="706" y="651" style="fill:black;" font-family="Arial" font-size="16px">created_at</text>
   <rect width="140" height="20" x="701" y="657" style="fill:none;stroke:black;"/>
   <text width="140" height="20" x="706" y="671" style="fill:black;" font-family="Arial" font-size="16px">updated_at</text>
   <rect width="116" height="20" x="535" y="765" style="fill:#007;stroke:black;"/>
   <text width="116" height="20" x="540" y="779" style="fill:#fff;" font-family="Arial" font-size="16px"> dev_blogs</text>
   <rect width="116" height="20" x="535" y="785" style="fill:#aea;stroke:black;"/>
   <text width="116" height="20" x="540" y="799" style="fill:black;" font-family="Arial" font-size="16px">id</text>
   <rect width="116" height="20" x="535" y="805" style="fill:none;stroke:black;"/>
   <text width="116" height="20" x="540" y="819" style="fill:black;" font-family="Arial" font-size="16px">dev_blog_name</text>
   <rect width="116" height="20" x="535" y="825" style="fill:none;stroke:black;"/>
   <text width="116" height="20" x="540" y="839" style="fill:black;" font-family="Arial" font-size="16px">dev_blog_desc</text>
   <rect width="116" height="20" x="535" y="845" style="fill:none;stroke:black;"/>
   <text width="116" height="20" x="540" y="859" style="fill:black;" font-family="Arial" font-size="16px">created_at</text>
   <rect width="116" height="20" x="535" y="865" style="fill:none;stroke:black;"/>
   <text width="116" height="20" x="540" y="879" style="fill:black;" font-family="Arial" font-size="16px">updated_at</text>
   <rect width="87" height="20" x="575" y="1170" style="fill:#007;stroke:black;"/>
   <text width="87" height="20" x="580" y="1184" style="fill:#fff;" font-family="Arial" font-size="16px"> failed_jobs</text>
   <rect width="87" height="20" x="575" y="1190" style="fill:#aea;stroke:black;"/>
   <text width="87" height="20" x="580" y="1204" style="fill:black;" font-family="Arial" font-size="16px">id</text>
   <rect width="87" height="20" x="575" y="1210" style="fill:none;stroke:black;"/>
   <text width="87" height="20" x="580" y="1224" style="fill:black;" font-family="Arial" font-size="16px">uuid</text>
   <rect width="87" height="20" x="575" y="1230" style="fill:none;stroke:black;"/>
   <text width="87" height="20" x="580" y="1244" style="fill:black;" font-family="Arial" font-size="16px">connection</text>
   <rect width="87" height="20" x="575" y="1250" style="fill:none;stroke:black;"/>
   <text width="87" height="20" x="580" y="1264" style="fill:black;" font-family="Arial" font-size="16px">queue</text>
   <rect width="87" height="20" x="575" y="1270" style="fill:none;stroke:black;"/>
   <text width="87" height="20" x="580" y="1284" style="fill:black;" font-family="Arial" font-size="16px">payload</text>
   <rect width="87" height="20" x="575" y="1290" style="fill:none;stroke:black;"/>
   <text width="87" height="20" x="580" y="1304" style="fill:black;" font-family="Arial" font-size="16px">exception</text>
   <rect width="87" height="20" x="575" y="1310" style="fill:none;stroke:black;"/>
   <text width="87" height="20" x="580" y="1324" style="fill:black;" font-family="Arial" font-size="16px">failed_at</text>
   <rect width="99" height="20" x="103" y="804" style="fill:#007;stroke:black;"/>
   <text width="99" height="20" x="108" y="818" style="fill:#fff;" font-family="Arial" font-size="16px"> images</text>
   <rect width="99" height="20" x="103" y="824" style="fill:#aea;stroke:black;"/>
   <text width="99" height="20" x="108" y="838" style="fill:black;" font-family="Arial" font-size="16px">id</text>
   <rect width="99" height="20" x="103" y="844" style="fill:none;stroke:black;"/>
   <text width="99" height="20" x="108" y="858" style="fill:black;" font-family="Arial" font-size="16px">image_name</text>
   <rect width="99" height="20" x="103" y="864" style="fill:none;stroke:black;"/>
   <text width="99" height="20" x="108" y="878" style="fill:black;" font-family="Arial" font-size="16px">image_desc</text>
   <rect width="99" height="20" x="103" y="884" style="fill:none;stroke:black;"/>
   <text width="99" height="20" x="108" y="898" style="fill:black;" font-family="Arial" font-size="16px">album_id</text>
   <rect width="99" height="20" x="103" y="904" style="fill:none;stroke:black;"/>
   <text width="99" height="20" x="108" y="918" style="fill:black;" font-family="Arial" font-size="16px">created_at</text>
   <rect width="99" height="20" x="103" y="924" style="fill:none;stroke:black;"/>
   <text width="99" height="20" x="108" y="938" style="fill:black;" font-family="Arial" font-size="16px">updated_at</text>
   <rect width="120" height="20" x="1071" y="1177" style="fill:#007;stroke:black;"/>
   <text width="120" height="20" x="1076" y="1191" style="fill:#fff;" font-family="Arial" font-size="16px"> images_albums</text>
   <rect width="120" height="20" x="1071" y="1197" style="fill:none;stroke:black;"/>
   <text width="120" height="20" x="1076" y="1211" style="fill:black;" font-family="Arial" font-size="16px">id</text>
   <rect width="120" height="20" x="1071" y="1217" style="fill:none;stroke:black;"/>
   <text width="120" height="20" x="1076" y="1231" style="fill:black;" font-family="Arial" font-size="16px">image_name</text>
   <rect width="120" height="20" x="1071" y="1237" style="fill:none;stroke:black;"/>
   <text width="120" height="20" x="1076" y="1251" style="fill:black;" font-family="Arial" font-size="16px">created_at</text>
   <rect width="120" height="20" x="1071" y="1257" style="fill:none;stroke:black;"/>
   <text width="120" height="20" x="1076" y="1271" style="fill:black;" font-family="Arial" font-size="16px">updated_at</text>
   <rect width="120" height="20" x="1071" y="1277" style="fill:none;stroke:black;"/>
   <text width="120" height="20" x="1076" y="1291" style="fill:black;" font-family="Arial" font-size="16px">image_desc</text>
   <rect width="120" height="20" x="1071" y="1297" style="fill:none;stroke:black;"/>
   <text width="120" height="20" x="1076" y="1311" style="fill:black;" font-family="Arial" font-size="16px">album_id</text>
   <rect width="120" height="20" x="1071" y="1317" style="fill:none;stroke:black;"/>
   <text width="120" height="20" x="1076" y="1331" style="fill:black;" font-family="Arial" font-size="16px">album_name</text>
   <rect width="120" height="20" x="1071" y="1337" style="fill:none;stroke:black;"/>
   <text width="120" height="20" x="1076" y="1351" style="fill:black;" font-family="Arial" font-size="16px">album_desc</text>
   <rect width="98" height="20" x="327" y="763" style="fill:#007;stroke:black;"/>
   <text width="98" height="20" x="332" y="777" style="fill:#fff;" font-family="Arial" font-size="16px"> loggers</text>
   <rect width="98" height="20" x="327" y="783" style="fill:#aea;stroke:black;"/>
   <text width="98" height="20" x="332" y="797" style="fill:black;" font-family="Arial" font-size="16px">id</text>
   <rect width="98" height="20" x="327" y="803" style="fill:none;stroke:black;"/>
   <text width="98" height="20" x="332" y="817" style="fill:black;" font-family="Arial" font-size="16px">log_level</text>
   <rect width="98" height="20" x="327" y="823" style="fill:none;stroke:black;"/>
   <text width="98" height="20" x="332" y="837" style="fill:black;" font-family="Arial" font-size="16px">log_category</text>
   <rect width="98" height="20" x="327" y="843" style="fill:none;stroke:black;"/>
   <text width="98" height="20" x="332" y="857" style="fill:black;" font-family="Arial" font-size="16px">log_instance</text>
   <rect width="98" height="20" x="327" y="863" style="fill:none;stroke:black;"/>
   <text width="98" height="20" x="332" y="877" style="fill:black;" font-family="Arial" font-size="16px">log_data</text>
   <rect width="98" height="20" x="327" y="883" style="fill:none;stroke:black;"/>
   <text width="98" height="20" x="332" y="897" style="fill:black;" font-family="Arial" font-size="16px">created_at</text>
   <rect width="98" height="20" x="327" y="903" style="fill:none;stroke:black;"/>
   <text width="98" height="20" x="332" y="917" style="fill:black;" font-family="Arial" font-size="16px">updated_at</text>
   <rect width="97" height="20" x="420" y="485" style="fill:#007;stroke:black;"/>
   <text width="97" height="20" x="425" y="499" style="fill:#fff;" font-family="Arial" font-size="16px"> micros</text>
   <rect width="97" height="20" x="420" y="505" style="fill:#aea;stroke:black;"/>
   <text width="97" height="20" x="425" y="519" style="fill:black;" font-family="Arial" font-size="16px">id</text>
   <rect width="97" height="20" x="420" y="525" style="fill:none;stroke:black;"/>
   <text width="97" height="20" x="425" y="539" style="fill:black;" font-family="Arial" font-size="16px">micro_name</text>
   <rect width="97" height="20" x="420" y="545" style="fill:none;stroke:black;"/>
   <text width="97" height="20" x="425" y="559" style="fill:black;" font-family="Arial" font-size="16px">micro_desc</text>
   <rect width="97" height="20" x="420" y="565" style="fill:none;stroke:black;"/>
   <text width="97" height="20" x="425" y="579" style="fill:black;" font-family="Arial" font-size="16px">micro_config</text>
   <rect width="97" height="20" x="420" y="585" style="fill:none;stroke:black;"/>
   <text width="97" height="20" x="425" y="599" style="fill:black;" font-family="Arial" font-size="16px">created_at</text>
   <rect width="97" height="20" x="420" y="605" style="fill:none;stroke:black;"/>
   <text width="97" height="20" x="425" y="619" style="fill:black;" font-family="Arial" font-size="16px">updated_at</text>
   <rect width="118" height="20" x="103" y="44" style="fill:#007;stroke:black;"/>
   <text width="118" height="20" x="108" y="58" style="fill:#fff;" font-family="Arial" font-size="16px"> micro_params</text>
   <rect width="118" height="20" x="103" y="64" style="fill:#aea;stroke:black;"/>
   <text width="118" height="20" x="108" y="78" style="fill:black;" font-family="Arial" font-size="16px">id</text>
   <rect width="118" height="20" x="103" y="84" style="fill:none;stroke:black;"/>
   <text width="118" height="20" x="108" y="98" style="fill:black;" font-family="Arial" font-size="16px">param_name</text>
   <rect width="118" height="20" x="103" y="104" style="fill:none;stroke:black;"/>
   <text width="118" height="20" x="108" y="118" style="fill:black;" font-family="Arial" font-size="16px">param_value</text>
   <rect width="118" height="20" x="103" y="124" style="fill:none;stroke:black;"/>
   <text width="118" height="20" x="108" y="138" style="fill:black;" font-family="Arial" font-size="16px">param_min</text>
   <rect width="118" height="20" x="103" y="144" style="fill:none;stroke:black;"/>
   <text width="118" height="20" x="108" y="158" style="fill:black;" font-family="Arial" font-size="16px">param_max</text>
   <rect width="118" height="20" x="103" y="164" style="fill:none;stroke:black;"/>
   <text width="118" height="20" x="108" y="178" style="fill:black;" font-family="Arial" font-size="16px">param_suff</text>
   <rect width="118" height="20" x="103" y="184" style="fill:none;stroke:black;"/>
   <text width="118" height="20" x="108" y="198" style="fill:black;" font-family="Arial" font-size="16px">param_in</text>
   <rect width="118" height="20" x="103" y="204" style="fill:none;stroke:black;"/>
   <text width="118" height="20" x="108" y="218" style="fill:black;" font-family="Arial" font-size="16px">device_micro_id</text>
   <rect width="118" height="20" x="103" y="224" style="fill:none;stroke:black;"/>
   <text width="118" height="20" x="108" y="238" style="fill:black;" font-family="Arial" font-size="16px">param_type_id</text>
   <rect width="118" height="20" x="103" y="244" style="fill:none;stroke:black;"/>
   <text width="118" height="20" x="108" y="258" style="fill:black;" font-family="Arial" font-size="16px">param_desc</text>
   <rect width="118" height="20" x="103" y="264" style="fill:none;stroke:black;"/>
   <text width="118" height="20" x="108" y="278" style="fill:black;" font-family="Arial" font-size="16px">created_at</text>
   <rect width="118" height="20" x="103" y="284" style="fill:none;stroke:black;"/>
   <text width="118" height="20" x="108" y="298" style="fill:black;" font-family="Arial" font-size="16px">updated_at</text>
   <rect width="83" height="20" x="90" y="1300" style="fill:#007;stroke:black;"/>
   <text width="83" height="20" x="95" y="1314" style="fill:#fff;" font-family="Arial" font-size="16px"> migrations</text>
   <rect width="83" height="20" x="90" y="1320" style="fill:#aea;stroke:black;"/>
   <text width="83" height="20" x="95" y="1334" style="fill:black;" font-family="Arial" font-size="16px">id</text>
   <rect width="83" height="20" x="90" y="1340" style="fill:none;stroke:black;"/>
   <text width="83" height="20" x="95" y="1354" style="fill:black;" font-family="Arial" font-size="16px">migration</text>
   <rect width="83" height="20" x="90" y="1360" style="fill:none;stroke:black;"/>
   <text width="83" height="20" x="95" y="1374" style="fill:black;" font-family="Arial" font-size="16px">batch</text>
   <rect width="100" height="20" x="102" y="430" style="fill:#007;stroke:black;"/>
   <text width="100" height="20" x="107" y="444" style="fill:#fff;" font-family="Arial" font-size="16px"> param_types</text>
   <rect width="100" height="20" x="102" y="450" style="fill:#aea;stroke:black;"/>
   <text width="100" height="20" x="107" y="464" style="fill:black;" font-family="Arial" font-size="16px">id</text>
   <rect width="100" height="20" x="102" y="470" style="fill:none;stroke:black;"/>
   <text width="100" height="20" x="107" y="484" style="fill:black;" font-family="Arial" font-size="16px">type_name</text>
   <rect width="100" height="20" x="102" y="490" style="fill:none;stroke:black;"/>
   <text width="100" height="20" x="107" y="504" style="fill:black;" font-family="Arial" font-size="16px">type_desc</text>
   <rect width="100" height="20" x="102" y="510" style="fill:none;stroke:black;"/>
   <text width="100" height="20" x="107" y="524" style="fill:black;" font-family="Arial" font-size="16px">created_at</text>
   <rect width="100" height="20" x="102" y="530" style="fill:none;stroke:black;"/>
   <text width="100" height="20" x="107" y="544" style="fill:black;" font-family="Arial" font-size="16px">updated_at</text>
   <rect width="123" height="20" x="316" y="1460" style="fill:#007;stroke:black;"/>
   <text width="123" height="20" x="321" y="1474" style="fill:#fff;" font-family="Arial" font-size="16px"> password_resets</text>
   <rect width="123" height="20" x="316" y="1480" style="fill:none;stroke:black;"/>
   <text width="123" height="20" x="321" y="1494" style="fill:black;" font-family="Arial" font-size="16px">email</text>
   <rect width="123" height="20" x="316" y="1500" style="fill:none;stroke:black;"/>
   <text width="123" height="20" x="321" y="1514" style="fill:black;" font-family="Arial" font-size="16px">token</text>
   <rect width="123" height="20" x="316" y="1520" style="fill:none;stroke:black;"/>
   <text width="123" height="20" x="321" y="1534" style="fill:black;" font-family="Arial" font-size="16px">created_at</text>
   <rect width="178" height="20" x="311" y="1170" style="fill:#007;stroke:black;"/>
   <text width="178" height="20" x="316" y="1184" style="fill:#fff;" font-family="Arial" font-size="16px"> personal_access_tokens</text>
   <rect width="178" height="20" x="311" y="1190" style="fill:#aea;stroke:black;"/>
   <text width="178" height="20" x="316" y="1204" style="fill:black;" font-family="Arial" font-size="16px">id</text>
   <rect width="178" height="20" x="311" y="1210" style="fill:none;stroke:black;"/>
   <text width="178" height="20" x="316" y="1224" style="fill:black;" font-family="Arial" font-size="16px">tokenable_type</text>
   <rect width="178" height="20" x="311" y="1230" style="fill:none;stroke:black;"/>
   <text width="178" height="20" x="316" y="1244" style="fill:black;" font-family="Arial" font-size="16px">tokenable_id</text>
   <rect width="178" height="20" x="311" y="1250" style="fill:none;stroke:black;"/>
   <text width="178" height="20" x="316" y="1264" style="fill:black;" font-family="Arial" font-size="16px">name</text>
   <rect width="178" height="20" x="311" y="1270" style="fill:none;stroke:black;"/>
   <text width="178" height="20" x="316" y="1284" style="fill:black;" font-family="Arial" font-size="16px">token</text>
   <rect width="178" height="20" x="311" y="1290" style="fill:none;stroke:black;"/>
   <text width="178" height="20" x="316" y="1304" style="fill:black;" font-family="Arial" font-size="16px">abilities</text>
   <rect width="178" height="20" x="311" y="1310" style="fill:none;stroke:black;"/>
   <text width="178" height="20" x="316" y="1324" style="fill:black;" font-family="Arial" font-size="16px">last_used_at</text>
   <rect width="178" height="20" x="311" y="1330" style="fill:none;stroke:black;"/>
   <text width="178" height="20" x="316" y="1344" style="fill:black;" font-family="Arial" font-size="16px">created_at</text>
   <rect width="178" height="20" x="311" y="1350" style="fill:none;stroke:black;"/>
   <text width="178" height="20" x="316" y="1364" style="fill:black;" font-family="Arial" font-size="16px">updated_at</text>
   <rect width="137" height="20" x="695" y="24" style="fill:#007;stroke:black;"/>
   <text width="137" height="20" x="700" y="38" style="fill:#fff;" font-family="Arial" font-size="16px"> presets</text>
   <rect width="137" height="20" x="695" y="44" style="fill:#aea;stroke:black;"/>
   <text width="137" height="20" x="700" y="58" style="fill:black;" font-family="Arial" font-size="16px">id</text>
   <rect width="137" height="20" x="695" y="64" style="fill:none;stroke:black;"/>
   <text width="137" height="20" x="700" y="78" style="fill:black;" font-family="Arial" font-size="16px">preset_key</text>
   <rect width="137" height="20" x="695" y="84" style="fill:none;stroke:black;"/>
   <text width="137" height="20" x="700" y="98" style="fill:black;" font-family="Arial" font-size="16px">preset_value</text>
   <rect width="137" height="20" x="695" y="104" style="fill:none;stroke:black;"/>
   <text width="137" height="20" x="700" y="118" style="fill:black;" font-family="Arial" font-size="16px">preset_description</text>
   <rect width="137" height="20" x="695" y="124" style="fill:none;stroke:black;"/>
   <text width="137" height="20" x="700" y="138" style="fill:black;" font-family="Arial" font-size="16px">created_at</text>
   <rect width="137" height="20" x="695" y="144" style="fill:none;stroke:black;"/>
   <text width="137" height="20" x="700" y="158" style="fill:black;" font-family="Arial" font-size="16px">updated_at</text>
   <rect width="127" height="20" x="982" y="452" style="fill:#007;stroke:black;"/>
   <text width="127" height="20" x="987" y="466" style="fill:#fff;" font-family="Arial" font-size="16px"> users</text>
   <rect width="127" height="20" x="982" y="472" style="fill:#aea;stroke:black;"/>
   <text width="127" height="20" x="987" y="486" style="fill:black;" font-family="Arial" font-size="16px">id</text>
   <rect width="127" height="20" x="982" y="492" style="fill:none;stroke:black;"/>
   <text width="127" height="20" x="987" y="506" style="fill:black;" font-family="Arial" font-size="16px">name</text>
   <rect width="127" height="20" x="982" y="512" style="fill:none;stroke:black;"/>
   <text width="127" height="20" x="987" y="526" style="fill:black;" font-family="Arial" font-size="16px">email</text>
   <rect width="127" height="20" x="982" y="532" style="fill:none;stroke:black;"/>
   <text width="127" height="20" x="987" y="546" style="fill:black;" font-family="Arial" font-size="16px">email_verified_at</text>
   <rect width="127" height="20" x="982" y="552" style="fill:none;stroke:black;"/>
   <text width="127" height="20" x="987" y="566" style="fill:black;" font-family="Arial" font-size="16px">password</text>
   <rect width="127" height="20" x="982" y="572" style="fill:none;stroke:black;"/>
   <text width="127" height="20" x="987" y="586" style="fill:black;" font-family="Arial" font-size="16px">remember_token</text>
   <rect width="127" height="20" x="982" y="592" style="fill:none;stroke:black;"/>
   <text width="127" height="20" x="987" y="606" style="fill:black;" font-family="Arial" font-size="16px">created_at</text>
   <rect width="127" height="20" x="982" y="612" style="fill:none;stroke:black;"/>
   <text width="127" height="20" x="987" y="626" style="fill:black;" font-family="Arial" font-size="16px">updated_at</text>
   <rect width="142" height="20" x="69" y="1172" style="fill:#007;stroke:black;"/>
   <text width="142" height="20" x="74" y="1186" style="fill:#fff;" font-family="Arial" font-size="16px"> users_with_devices</text>
   <rect width="142" height="20" x="69" y="1192" style="fill:none;stroke:black;"/>
   <text width="142" height="20" x="74" y="1206" style="fill:black;" font-family="Arial" font-size="16px">id</text>
   <rect width="142" height="20" x="69" y="1212" style="fill:none;stroke:black;"/>
   <text width="142" height="20" x="74" y="1226" style="fill:black;" font-family="Arial" font-size="16px">user_name</text>
   <rect width="142" height="20" x="69" y="1232" style="fill:none;stroke:black;"/>
   <text width="142" height="20" x="74" y="1246" style="fill:black;" font-family="Arial" font-size="16px">device_count</text>
   <rect width="137" height="20" x="982" y="179" style="fill:#007;stroke:black;"/>
   <text width="137" height="20" x="987" y="193" style="fill:#fff;" font-family="Arial" font-size="16px"> user_devices</text>
   <rect width="137" height="20" x="982" y="199" style="fill:#aea;stroke:black;"/>
   <text width="137" height="20" x="987" y="213" style="fill:black;" font-family="Arial" font-size="16px">id</text>
   <rect width="137" height="20" x="982" y="219" style="fill:none;stroke:black;"/>
   <text width="137" height="20" x="987" y="233" style="fill:black;" font-family="Arial" font-size="16px">user_device_name</text>
   <rect width="137" height="20" x="982" y="239" style="fill:none;stroke:black;"/>
   <text width="137" height="20" x="987" y="253" style="fill:black;" font-family="Arial" font-size="16px">user_device_pass</text>
   <rect width="137" height="20" x="982" y="259" style="fill:none;stroke:black;"/>
   <text width="137" height="20" x="987" y="273" style="fill:black;" font-family="Arial" font-size="16px">device_id</text>
   <rect width="137" height="20" x="982" y="279" style="fill:none;stroke:black;"/>
   <text width="137" height="20" x="987" y="293" style="fill:black;" font-family="Arial" font-size="16px">user_id</text>
   <rect width="137" height="20" x="982" y="299" style="fill:none;stroke:black;"/>
   <text width="137" height="20" x="987" y="313" style="fill:black;" font-family="Arial" font-size="16px">created_at</text>
   <rect width="137" height="20" x="982" y="319" style="fill:none;stroke:black;"/>
   <text width="137" height="20" x="987" y="333" style="fill:black;" font-family="Arial" font-size="16px">updated_at</text>
</svg>
